<svg xmlns="http://www.w3.org/2000/svg" viewBox="0 0 800 500"><defs><filter id="glow-purple" x="-20%" y="-20%" width="140%" height="140%"><feGaussianBlur stdDeviation="8" result="blur"/><feComposite in="SourceGraphic" in2="blur"/></filter><filter id="glow-cyan" x="-20%" y="-20%" width="140%" height="140%"><feGaussianBlur stdDeviation="6" result="blur"/><feComposite in="SourceGraphic" in2="blur"/></filter><pattern id="grid" width="40" height="40" patternUnits="userSpaceOnUse"><path d="M40 0H0v40" fill="none" stroke="rgba(255, 255, 255, 0.03)"/></pattern></defs><path fill="#080c14" d="M0 0h800v500H0z"/><path fill="url('#grid')" d="M0 0h800v500H0z"/><g fill="none" stroke-linecap="round" opacity=".45"><path d="M50 150q100-50 200 10t200 20 200-50 100 30" stroke="#05f" stroke-width="3"/><path d="M50 170q100-50 200 10t200 20 200-50 100 30" stroke="#00c6ff" stroke-width="1.5" stroke-dasharray="8 6"/><path d="M50 250q130 70 250-10t250 20 200-50" stroke="#7000ff" stroke-width="2"/><path d="M50 330q110-60 230 10t220-30 180 40 70-40" stroke="#00f2fe" stroke-width="3" filter="url('#glow-cyan')"/><path d="M50 350q110-60 230 10t220-30 180 40 70-40" stroke="#fff" stroke-dasharray="4 4"/></g><g fill="#00f2fe"><circle cx="280" cy="340" r="3"/><circle cx="500" cy="310" r="3"/><circle cx="680" cy="350" r="3"/></g><g transform="translate(100 100)" filter="url('#glow-purple')"><rect width="180" height="100" rx="8" fill="rgba(112, 0, 255, 0.08)" stroke="#7000ff" stroke-width="1.5"/><text x="15" y="30" fill="#fff" font-family="sans-serif" font-size="12" font-weight="bold">FAISS VECTOR INDEX</text><text x="15" y="52" fill="#9d4edd" font-family="monospace" font-size="10">DIMENSIONS: 1536</text><text x="15" y="70" fill="#00f2fe" font-family="monospace" font-size="10">METRIC: L2_DISTANCE</text><circle cx="160" cy="25" r="5" fill="#7000ff"/></g><g transform="translate(420 180)"><rect width="320" height="260" rx="12" fill="rgba(8, 12, 20, 0.9)" stroke="#00f2fe" stroke-width="1.5" filter="url('#glow-cyan')"/><path d="M0 45h320" stroke="rgba(0, 242, 260, 0.2)"/><circle cx="20" cy="22" r="6" fill="#ff5e00"/><circle cx="36" cy="22" r="6" fill="#fa0"/><circle cx="52" cy="22" r="6" fill="#00f2fe"/><text x="240" y="27" fill="rgba(255,255,255,0.4)" font-family="monospace" font-size="10">FloatChat v1.0</text><rect x="80" y="65" width="225" height="45" rx="6" fill="rgba(0, 198, 255, 0.15)" stroke="rgba(0, 198, 255, 0.3)"/><text x="90" y="82" fill="#fff" font-family="sans-serif" font-size="10">Compare temperature anomalies in</text><text x="90" y="96" fill="#fff" font-family="sans-serif" font-size="10">buoy B-102 over the last 48 hours.</text><rect x="15" y="125" width="240" height="65" rx="6" fill="rgba(112, 0, 255, 0.12)" stroke="rgba(112, 0, 255, 0.3)"/><text x="25" y="142" fill="#9d4edd" font-family="sans-serif" font-size="9" font-weight="bold">AI OCEANOGRAPHER</text><text x="25" y="157" fill="#fff" font-family="sans-serif" font-size="10">Buoy B-102 reports +1.5°C anomaly,</text><text x="25" y="171" fill="#fff" font-family="sans-serif" font-size="10">indicating a shifting warm current vector.</text><rect x="15" y="205" width="290" height="40" rx="6" fill="#0c1220" stroke="rgba(0, 242, 260, 0.2)"/><text x="25" y="228" fill="rgba(255, 255, 255, 0.3)" font-family="sans-serif" font-size="11">Ask about oceanographic buoy B-102...</text><path fill="#00f2fe" d="m280 225 10-5-10-5z"/></g><path d="M280 150q70 0 70 110h70" fill="none" stroke="#7000ff" stroke-width="2" stroke-dasharray="5 5"/><circle cx="350" cy="200" r="4" fill="#7000ff"/><text x="30" y="50" fill="#fff" opacity=".8" font-family="sans-serif" font-size="18" font-weight="bold">FloatChat Engine</text><text x="30" y="72" fill="#7000ff" font-family="monospace" font-size="11" opacity=".9">PIPELINE: LANGCHAIN // EMBEDDINGS: FAISS</text><path d="M30 90h290" stroke="rgba(112, 0, 255, 0.2)"/></svg>