<svg xmlns="http://www.w3.org/2000/svg" viewBox="0 0 800 500"><defs><filter id="glow-green" x="-20%" y="-20%" width="140%" height="140%"><feGaussianBlur stdDeviation="8" result="blur"/><feComposite in="SourceGraphic" in2="blur"/></filter><filter id="glow-cyan" x="-20%" y="-20%" width="140%" height="140%"><feGaussianBlur stdDeviation="6" result="blur"/><feComposite in="SourceGraphic" in2="blur"/></filter><pattern id="grid" width="40" height="40" patternUnits="userSpaceOnUse"><path d="M40 0H0v40" fill="none" stroke="rgba(255, 255, 255, 0.03)"/></pattern></defs><path fill="#080c14" d="M0 0h800v500H0z"/><path fill="url('#grid')" d="M0 0h800v500H0z"/><g stroke="rgba(0, 255, 102, 0.15)" stroke-width="1.5"><path d="m100 250 120-70M100 250l120 70"/><path stroke="rgba(0, 255, 102, 0.4)" stroke-width="2" d="m220 180 140-50"/><path d="m220 180 140 30M220 320l140-30M220 320l140 50M360 130l120-20M360 130l120 40M360 210l120-40M360 210l120 30M360 290l120-20M360 370h120"/></g><g fill="#0f6" filter="url('#glow-green')"><circle cx="290" cy="155" r="5"/><circle cx="420" cy="120" r="4"/></g><g transform="translate(40 215)" filter="url('#glow-cyan')"><rect width="120" height="70" rx="8" fill="rgba(0, 242, 260, 0.08)" stroke="#00f2fe" stroke-width="1.5"/><text x="15" y="32" fill="#fff" font-family="sans-serif" font-size="11" font-weight="bold">USER QUERY</text><text x="15" y="50" fill="#00f2fe" font-family="monospace" font-size="9">Intent: Enrollment</text></g><g transform="translate(180 215)" filter="url('#glow-green')"><circle cx="40" cy="35" r="30" fill="rgba(0, 255, 102, 0.08)" stroke="#0f6" stroke-width="2"/><text x="25" y="38" fill="#0f6" font-family="monospace" font-size="10" font-weight="bold">RAG_ROUTER</text></g><g transform="translate(320 105)"><rect width="100" height="45" rx="6" fill="#0a1220" stroke="rgba(255, 255, 255, 0.15)" stroke-width="1.5"/><text x="12" y="27" fill="#fff" font-family="sans-serif" font-size="10" font-weight="bold">Academics</text></g><g transform="translate(320 185)"><rect width="100" height="45" rx="6" fill="#0a1220" stroke="rgba(255, 255, 255, 0.15)"/><text x="12" y="27" fill="rgba(255, 255, 255, 0.6)" font-family="sans-serif" font-size="10">Admissions</text></g><g transform="translate(320 265)"><rect width="100" height="45" rx="6" fill="#0a1220" stroke="rgba(255, 255, 255, 0.15)"/><text x="12" y="27" fill="rgba(255, 255, 255, 0.6)" font-family="sans-serif" font-size="10">Facilities</text></g><g transform="translate(480 80)"><rect width="130" height="50" rx="4" fill="rgba(0, 255, 102, 0.08)" stroke="#0f6"/><text x="10" y="24" fill="#fff" font-family="sans-serif" font-size="9" font-weight="bold">CourseCatalog.pdf</text><text x="10" y="38" fill="#0f6" font-family="monospace" font-size="8">SIMILARITY: 0.94</text></g><g transform="translate(480 145)"><rect width="130" height="50" rx="4" fill="rgba(255, 255, 255, 0.03)" stroke="rgba(255,255,255,0.1)"/><text x="10" y="24" fill="rgba(255, 255, 255, 0.5)" font-family="sans-serif" font-size="9">AcademicCal.pdf</text><text x="10" y="38" fill="rgba(255, 255, 255, 0.3)" font-family="monospace" font-size="8">SIMILARITY: 0.72</text></g><g transform="translate(620 310)"><rect width="150" height="150" rx="8" fill="rgba(8, 12, 20, 0.9)" stroke="#00f2fe" stroke-width="1.5" filter="url('#glow-cyan')"/><text x="15" y="25" fill="#fff" font-family="sans-serif" font-size="11" font-weight="bold">RAG STATS</text><path d="M15 35h120" stroke="rgba(0, 242, 260, 0.2)"/><text x="15" y="55" fill="rgba(255, 255, 255, 0.6)" font-family="sans-serif" font-size="10">Chunks: 1,420</text><text x="15" y="75" fill="rgba(255, 255, 255, 0.6)" font-family="sans-serif" font-size="10">Avg Latency: 124ms</text><text x="15" y="95" fill="rgba(255, 255, 255, 0.6)" font-family="sans-serif" font-size="10">Accuracy: 98.6%</text><rect x="15" y="115" width="80" height="20" rx="4" fill="#0f6"/><text x="23" y="129" fill="#080c14" font-family="sans-serif" font-size="9" font-weight="bold">OPTIMIZED</text></g><text x="30" y="50" fill="#fff" opacity=".8" font-family="sans-serif" font-size="18" font-weight="bold">Semantic Query Router</text><text x="30" y="72" fill="#0f6" font-family="monospace" font-size="11" opacity=".9">FRAMEWORK: DIFY + LANGFLOW // RAG: HYBRID_SEARCH</text><path d="M30 90h300" stroke="rgba(0, 255, 102, 0.2)"/></svg>