<svg xmlns="http://www.w3.org/2000/svg" viewBox="0 0 800 500"><defs><radialGradient id="heat-high" cx="50%" cy="50%" r="50%"><stop offset="0%" stop-color="#ff5e00" stop-opacity=".6"/><stop offset="60%" stop-color="#ff9d00" stop-opacity=".3"/><stop offset="100%" stop-color="#ff9d00" stop-opacity="0"/></radialGradient><radialGradient id="heat-med" cx="50%" cy="50%" r="50%"><stop offset="0%" stop-color="#fa0" stop-opacity=".5"/><stop offset="70%" stop-color="#00f2fe" stop-opacity=".1"/><stop offset="100%" stop-color="#00f2fe" stop-opacity="0"/></radialGradient><filter id="glow-cyan" x="-20%" y="-20%" width="140%" height="140%"><feGaussianBlur stdDeviation="6" result="blur"/><feComposite in="SourceGraphic" in2="blur"/></filter><filter id="glow-orange" x="-20%" y="-20%" width="140%" height="140%"><feGaussianBlur stdDeviation="8" result="blur"/><feComposite in="SourceGraphic" in2="blur"/></filter><pattern id="grid" width="40" height="40" patternUnits="userSpaceOnUse"><path d="M40 0H0v40" fill="none" stroke="rgba(255, 255, 255, 0.03)"/></pattern></defs><path fill="#080c14" d="M0 0h800v500H0z"/><path fill="url('#grid')" d="M0 0h800v500H0z"/><circle cx="280" cy="220" r="140" fill="url('#heat-high')"/><circle cx="340" cy="240" r="100" fill="url('#heat-med')"/><circle cx="500" cy="180" r="110" fill="url('#heat-med')"/><g stroke="rgba(0, 242, 260, 0.15)"><path d="m200 180 40-30M240 150l40 40M280 190l-60 40M220 230l-20-50M240 150l-20 80M280 190l50-20M280 190l30 60M310 250l50-30M360 220l20 60M380 280l-70 10M310 290l-50-30M260 260l50-10M310 250l70 30M360 220l80-20M440 200l80 30M520 230l40-60M560 170l-80-20M480 150l-40 50M440 200l120-30"/></g><g fill="#00f2fe"><circle cx="200" cy="180" r="4"/><circle cx="240" cy="150" r="4"/><circle cx="220" cy="230" r="4"/><circle cx="330" cy="170" r="4"/><circle cx="480" cy="150" r="4"/><circle cx="520" cy="230" r="4"/><circle cx="560" cy="170" r="4"/></g><g fill="#ff5e00" filter="url('#glow-orange')"><circle cx="280" cy="190" r="6"/><circle cx="310" cy="250" r="6"/><circle cx="360" cy="220" r="6"/><circle cx="380" cy="280" r="6"/><circle cx="310" cy="290" r="5"/><circle cx="260" cy="260" r="5"/></g><path fill="none" stroke="#00f2fe" stroke-width="1.5" stroke-dasharray="4 4" opacity=".7" d="M420 110h180v160H420z"/><path fill="#00f2fe" opacity=".8" d="M420 90h90v20h-90z"/><text x="425" y="104" fill="#080c14" font-family="monospace" font-size="10" font-weight="bold">CROWD_DECT_OK</text><path fill="none" stroke="#ff5e00" stroke-width="2" filter="url('#glow-cyan')" d="M230 140h190v180H230z"/><path fill="#ff5e00" d="M230 115h115v25H230z"/><text x="235" y="131" fill="#080c14" font-family="monospace" font-size="11" font-weight="bold">WARNING: CRITICAL</text><g transform="translate(560 40)"><rect width="200" height="70" rx="6" fill="rgba(8, 12, 20, 0.9)" stroke="#ff5e00" stroke-width="1.5" filter="url('#glow-orange')"/><circle cx="25" cy="35" r="8" fill="#ff5e00"/><text x="48" y="30" fill="#fff" font-family="sans-serif" font-size="12" font-weight="bold">DENSITY ALERT</text><text x="48" y="48" fill="#ff5e00" font-family="monospace" font-size="14" font-weight="bold">RISK: 94.2%</text></g><text x="30" y="50" fill="#fff" opacity=".8" font-family="sans-serif" font-size="18" font-weight="bold">STAMPEDE MONITORING v2.5</text><text x="30" y="72" fill="#00f2fe" font-family="monospace" font-size="11" opacity=".9">SYS_STATUS: ACTIVE // FEED_COUNT: 4</text><path d="M30 90h270" stroke="rgba(0, 242, 260, 0.2)"/></svg>